# Blender v3.0.0 OBJ File: 'Aircraft_Carrier.blend'
# www.blender.org
mtllib Aircraft_Carrier.mtl
o 立方体.002
v -10.000000 -0.200000 30.000000
v -10.000000 0.200000 30.000000
v -10.000000 -0.200000 -30.000000
v -10.000000 0.200000 -30.000000
v 10.000000 -0.200000 30.000000
v 10.000000 0.200000 30.000000
v 10.000000 -0.200000 -30.000000
v 10.000000 0.200000 -30.000000
v -5.817345 -12.098311 -17.452032
v -5.817345 -12.098311 17.452032
v 5.817345 -12.000000 -17.452032
v 5.817345 -12.000000 17.452032
v 20.000000 0.400000 -30.000000
v 20.000000 0.000000 -30.000000
v 20.000000 0.000000 30.000000
v 20.000000 0.400000 30.000000
v 18.000000 -1.000000 17.452032
v 18.000000 -1.000000 -17.452032
v -20.000000 0.000000 -30.000000
v -20.000000 0.000000 30.000000
v -20.000000 0.400000 30.000000
v -20.000000 0.400000 -30.000000
v -18.000000 -1.000000 -17.452032
v -18.000000 -1.000000 17.452032
v -2.258566 0.110977 46.762909
v -4.431202 0.289023 46.762928
v 4.471058 0.289023 46.762928
v 2.273867 0.110977 46.762928
v -0.908672 -12.049156 34.214916
v 0.908674 -11.950846 34.214962
v -9.977709 0.400000 -48.251827
v -5.091328 0.000000 -48.251827
v 5.091328 0.000000 -48.251827
v 10.022291 0.400000 -48.251827
v 0.908673 -11.950844 -35.703861
v -0.908672 -12.049155 -35.703861
v -10.000000 0.200000 -42.000000
v -20.000000 0.400000 -42.000000
v -10.000000 -0.200000 -42.000000
v -20.000000 0.000000 -42.000000
v -9.840839 8.158048 -30.000000
v -19.840839 8.358047 -30.000000
v -9.840839 8.158048 -42.000000
v -19.840839 8.358047 -42.000000
v -8.005839 8.677448 -30.000000
v -22.005840 8.877448 -30.000000
v -8.005839 8.677448 -42.000000
v -22.005840 8.877448 -42.000000
v -7.994161 9.261367 -30.000000
v -21.994162 9.461368 -30.000000
v -7.994161 9.261367 -42.000000
v -21.994162 9.461368 -42.000000
v -10.434261 9.708594 -32.096565
v -19.542284 9.838709 -32.096565
v -10.434261 9.708594 -39.903439
v -19.542284 9.838709 -39.903439
v -10.348156 15.736010 -32.096565
v -19.456179 15.866124 -32.096565
v -10.348156 15.736010 -39.903439
v -19.456179 15.866124 -39.903439
v -6.733039 17.005407 -29.014067
v -23.033558 17.238272 -29.014067
v -6.733039 17.005407 -42.985931
v -23.033558 17.238272 -42.985931
v -11.798740 18.197817 -33.369808
v -17.935860 18.285490 -33.369808
v -11.798740 18.197817 -38.630192
v -17.935860 18.285490 -38.630192
v -11.729318 23.057455 -33.369808
v -17.866438 23.145128 -33.369808
v -11.729318 23.057455 -38.630192
v -17.866438 23.145128 -38.630192
v -13.581223 24.960295 -34.980125
v -15.960937 24.994291 -34.980125
v -13.581223 24.960295 -37.019878
v -15.960937 24.994291 -37.019878
v -13.547380 27.329212 -34.980125
v -15.927094 27.363209 -34.980125
v -13.547380 27.329212 -37.019878
v -15.927094 27.363209 -37.019878
v -10.016920 24.913366 -34.980125
v -10.016920 24.913366 -37.019878
v -9.983080 27.282282 -34.980125
v -9.983080 27.282282 -37.019878
v -19.516922 25.053957 -34.980125
v -19.516922 25.053957 -37.019878
v -19.483080 27.422876 -34.980125
v -19.483080 27.422876 -37.019878
v -13.493934 31.070404 -34.980125
v -15.873648 31.104401 -34.980125
v -13.493934 31.070404 -37.019878
v -15.873648 31.104401 -37.019878
vt 0.358357 0.978493
vt 0.329487 0.912750
vt 0.358357 0.000000
vt 0.773438 0.420963
vt 0.803813 0.355408
vt 0.803813 0.437995
vt 0.913964 0.448787
vt 0.936494 0.425052
vt 0.936494 0.439694
vt 0.469598 0.966351
vt 0.494221 0.000000
vt 0.494221 0.982811
vt 0.897550 0.430454
vt 0.834474 0.463348
vt 0.834474 0.430454
vt 0.934243 0.516430
vt 0.897550 0.495657
vt 0.934243 0.495657
vt 1.000000 0.131574
vt 0.955399 0.098680
vt 1.000000 0.098680
vt 0.237408 0.000000
vt 0.200715 0.904793
vt 0.200715 0.000000
vt 0.985671 0.348856
vt 0.968014 0.337093
vt 0.985671 0.328083
vt 0.897550 0.496242
vt 0.834474 0.463348
vt 0.897550 0.463348
vt 0.897550 0.082300
vt 0.847665 0.164599
vt 0.834474 0.082300
vt 1.000000 0.164468
vt 0.955399 0.131574
vt 1.000000 0.131574
vt 0.955399 0.065787
vt 0.986937 0.082234
vt 0.955399 0.098680
vt 0.944339 0.481789
vt 0.975877 0.465342
vt 0.975877 0.498236
vt 0.416101 0.970409
vt 0.387228 0.904667
vt 0.416101 0.000000
vt 0.075690 0.032894
vt 0.012615 0.000000
vt 0.075690 0.000000
vt 0.897550 0.000000
vt 0.847665 0.082300
vt 0.834474 0.000000
vt 0.012615 0.032894
vt 0.000000 0.000000
vt 0.955399 0.016447
vt 0.986937 0.032894
vt 0.955399 0.049340
vt 0.200715 0.000000
vt 0.164021 0.912876
vt 0.164022 0.000000
vt 0.734720 0.472388
vt 0.765094 0.406833
vt 0.765094 0.489420
vt 0.862550 0.507269
vt 0.834474 0.496242
vt 0.862550 0.499815
vt 0.722104 0.000000
vt 0.722104 0.991927
vt 0.707810 0.000039
vt 0.955399 0.229168
vt 0.988372 0.227210
vt 0.988372 0.257209
vt 0.269521 0.974392
vt 0.299523 0.000000
vt 0.299524 1.000000
vt 0.862550 0.506372
vt 0.889500 0.496242
vt 0.889500 0.511313
vt 0.590415 0.970406
vt 0.566964 0.004051
vt 0.590415 0.000000
vt 0.797795 0.489420
vt 0.734720 0.514203
vt 0.734720 0.497456
vt 0.828708 0.990894
vt 0.822867 0.008064
vt 0.828707 0.000000
vt 0.938618 0.383000
vt 0.913964 0.366553
vt 0.938618 0.350106
vt 0.518867 0.978493
vt 0.494221 0.004055
vt 0.518866 0.000000
vt 0.955399 0.275110
vt 0.975993 0.257209
vt 0.975993 0.291087
vt 0.946244 0.498236
vt 0.960867 0.511677
vt 0.944342 0.511677
vt 0.955399 0.164504
vt 0.992315 0.197361
vt 0.955399 0.197398
vt 0.081445 0.032894
vt 0.112970 0.016440
vt 0.112995 0.049334
vt 0.734720 0.032894
vt 0.722104 0.687314
vt 0.722104 0.032894
vt 0.980629 0.372115
vt 0.968014 0.348856
vt 0.980629 0.348856
vt 0.722104 0.000000
vt 0.885254 0.384064
vt 0.872639 0.426926
vt 0.872639 0.384064
vt 0.000000 0.687314
vt 0.000000 0.032894
vt 0.081445 0.687314
vt 0.157161 0.745148
vt 0.125610 0.107170
vt 0.157161 0.090729
vt 0.968014 0.291088
vt 0.955399 0.339108
vt 0.955399 0.291088
vt 0.119856 0.064457
vt 0.164021 0.048019
vt 0.968014 0.339104
vt 0.955399 0.381924
vt 0.955399 0.339104
vt 0.112995 0.703754
vt 0.075691 0.730027
vt 0.980629 0.291088
vt 0.970218 0.328083
vt 0.968014 0.291088
vt 0.119856 0.016438
vt 0.164021 0.000000
vt 0.816428 0.355408
vt 0.803813 0.403427
vt 0.803813 0.355408
vt 0.119856 0.746465
vt 0.075691 0.778045
vt 0.905757 0.000000
vt 0.897550 0.495659
vt 0.897550 0.000000
vt 0.944339 0.430058
vt 0.984826 0.411884
vt 0.984826 0.448898
vt 0.816428 0.403427
vt 0.806017 0.434719
vt 0.803813 0.403427
vt 0.773438 0.456833
vt 0.813924 0.475010
vt 0.787585 0.487267
vt 0.884087 0.271072
vt 0.872639 0.384064
vt 0.875880 0.271072
vt 0.707810 0.495659
vt 0.679080 0.010696
vt 0.707810 0.000000
vt 0.913964 0.000000
vt 0.905757 0.495659
vt 0.905757 0.000000
vt 0.679080 0.010696
vt 0.650349 0.495659
vt 0.650349 0.000000
vt 0.928652 0.165176
vt 0.918543 0.263588
vt 0.913964 0.165176
vt 0.822867 0.237473
vt 0.773438 0.144981
vt 0.822867 0.124466
vt 0.894047 0.164597
vt 0.882599 0.269150
vt 0.885840 0.164597
vt 0.822868 0.011467
vt 0.773438 0.103951
vt 0.795248 0.000000
vt 0.955399 0.000000
vt 0.949869 0.399628
vt 0.949869 0.000000
vt 0.773437 0.334061
vt 0.821562 0.256966
vt 0.821562 0.355408
vt 0.928652 0.263580
vt 0.918543 0.350105
vt 0.913964 0.263580
vt 0.834475 0.185944
vt 0.882600 0.263039
vt 0.864480 0.271072
vt 0.934182 0.165176
vt 0.930345 0.317268
vt 0.928652 0.165176
vt 0.773438 0.399628
vt 0.754079 0.007210
vt 0.773438 0.000000
vt 0.949869 0.000000
vt 0.944339 0.399628
vt 0.944339 0.000000
vt 0.754078 0.007210
vt 0.734719 0.399628
vt 0.734719 0.000000
vt 0.769383 0.413849
vt 0.771527 0.406830
vt 0.771527 0.413849
vt 0.853557 0.278481
vt 0.872640 0.427582
vt 0.865240 0.430450
vt 0.892858 0.271072
vt 0.889020 0.427582
vt 0.887328 0.271072
vt 0.834474 0.423050
vt 0.853557 0.273941
vt 0.853557 0.430450
vt 0.942195 0.165176
vt 0.940050 0.472824
vt 0.940050 0.165176
vt 0.631599 0.502457
vt 0.639106 0.310440
vt 0.639106 0.505249
vt 0.631599 0.307648
vt 0.620382 0.497559
vt 0.620382 0.302750
vt 0.601633 0.006653
vt 0.609139 0.198662
vt 0.601633 0.201454
vt 0.988373 0.257210
vt 0.986228 0.452011
vt 0.986228 0.257210
vt 0.650349 0.314301
vt 0.650349 0.509109
vt 0.609139 0.003860
vt 0.620382 0.194801
vt 0.769383 0.420868
vt 0.771527 0.413849
vt 0.771527 0.420868
vt 0.990517 0.227211
vt 0.988373 0.422020
vt 0.988373 0.227211
vt 0.767239 0.406830
vt 0.765094 0.414467
vt 0.765094 0.406830
vt 0.590415 0.011559
vt 0.769383 0.406830
vt 0.767239 0.414467
vt 0.767239 0.406830
vt 0.767239 0.414467
vt 0.769383 0.419273
vt 0.767239 0.419273
vt 0.609139 0.506317
vt 0.601633 0.509109
vt 0.944339 0.165176
vt 0.942195 0.472824
vt 0.942195 0.165176
vt 0.639106 0.002792
vt 0.913964 0.099618
vt 0.944339 0.082587
vt 0.944339 0.165173
vt 0.444975 0.000000
vt 0.444975 0.970407
vt 0.416101 0.065739
vt 0.913964 0.415893
vt 0.543512 0.000000
vt 0.543512 0.970407
vt 0.518866 0.966352
vt 0.897550 0.463348
vt 0.897550 0.516430
vt 0.955399 0.131574
vt 0.237408 0.904793
vt 0.928586 0.482648
vt 0.930495 0.495493
vt 0.913963 0.495493
vt 0.834474 0.496242
vt 0.884359 0.164599
vt 0.955399 0.164468
vt 0.986937 0.049340
vt 0.944339 0.448896
vt 0.913964 0.017032
vt 0.944339 0.000000
vt 0.944339 0.082587
vt 0.884359 0.082300
vt 0.986937 0.000000
vt 0.200715 0.912876
vt 0.387228 0.000000
vt 0.387228 0.978492
vt 0.358357 0.065740
vt 0.834474 0.510883
vt 0.834474 0.000000
vt 0.834474 1.000000
vt 0.828708 0.991922
vt 0.955399 0.386852
vt 0.982275 0.381924
vt 0.982275 0.397004
vt 0.566964 0.000000
vt 0.566964 0.978492
vt 0.543512 0.974442
vt 0.955399 0.227210
vt 0.982052 0.197398
vt 0.988621 0.227210
vt 0.299524 0.025607
vt 0.329487 0.000000
vt 0.329487 0.991916
vt 0.797795 0.522313
vt 0.237408 0.000117
vt 0.269521 0.000000
vt 0.269521 0.982811
vt 0.913964 0.464755
vt 0.934585 0.448787
vt 0.934585 0.482648
vt 0.444975 0.016459
vt 0.469598 0.000000
vt 0.469598 0.990895
vt 0.938618 0.383000
vt 0.938618 0.415894
vt 0.913964 0.399447
vt 0.817015 0.489420
vt 0.817015 0.510193
vt 0.797795 0.501183
vt 0.992315 0.164468
vt 0.081420 0.000000
vt 0.734719 0.687314
vt 0.968014 0.372115
vt 0.734720 0.000000
vt 0.885254 0.426926
vt 0.012615 0.687314
vt 0.125610 0.761589
vt 0.968014 0.339108
vt 0.968014 0.381924
vt 0.978425 0.328083
vt 0.816428 0.403427
vt 0.119856 0.794483
vt 0.905757 0.495659
vt 0.958486 0.399628
vt 0.814224 0.434719
vt 0.813924 0.437996
vt 0.887327 0.384064
vt 0.679080 0.506355
vt 0.913964 0.495659
vt 0.679080 0.506351
vt 0.924073 0.263588
vt 0.795248 0.248932
vt 0.897287 0.269150
vt 0.822868 0.124466
vt 0.955399 0.399628
vt 0.803443 0.248932
vt 0.924073 0.350105
vt 0.882600 0.164597
vt 0.932489 0.317268
vt 0.754079 0.406830
vt 0.949869 0.399628
vt 0.754079 0.406830
vt 0.769383 0.406830
vt 0.872640 0.271072
vt 0.891165 0.427582
vt 0.846158 0.271072
vt 0.942195 0.472824
vt 0.988373 0.452011
vt 0.620382 0.000000
vt 0.769383 0.413849
vt 0.990517 0.422020
vt 0.767239 0.414467
vt 0.590415 0.206360
vt 0.769383 0.414467
vt 0.769383 0.414467
vt 0.944339 0.472824
vt 0.631599 0.000000
vn -0.6080 -0.6674 0.4302
vn 0.0199 -0.9969 0.0763
vn 0.0000 1.0000 -0.0053
vn 0.8205 -0.5249 -0.2264
vn 0.0000 1.0000 0.0000
vn 0.0084 -1.0000 0.0000
vn 0.0200 0.9998 0.0000
vn 0.6702 -0.7422 0.0000
vn 0.0084 -1.0000 0.0005
vn 1.0000 0.0000 0.0000
vn 0.4472 -0.8944 0.0000
vn -0.0200 0.9998 0.0000
vn 0.0000 0.0000 -1.0000
vn 0.0000 0.0000 1.0000
vn 0.6054 -0.6705 -0.4288
vn -1.0000 0.0000 0.0000
vn -0.4472 -0.8944 0.0000
vn -0.6734 -0.7392 0.0000
vn -0.0199 -0.9969 -0.0763
vn -0.0000 -0.0002 1.0000
vn -0.0000 -0.7209 0.6930
vn 0.9082 0.0000 0.4186
vn -0.7949 -0.4762 0.3759
vn -0.0816 -0.9961 0.0324
vn 0.8077 -0.5395 0.2381
vn 0.0386 -0.7143 -0.6988
vn -0.9657 0.0000 -0.2597
vn -0.8223 -0.5238 -0.2226
vn 0.0808 -0.9967 -0.0108
vn 0.0540 -0.9984 -0.0172
vn 0.0000 0.9999 0.0110
vn 0.9998 -0.0200 0.0000
vn -0.0200 -0.9998 0.0000
vn -0.2333 -0.9724 0.0000
vn -0.9998 0.0200 0.0000
vn 0.2724 -0.9622 0.0000
vn 0.1803 0.9836 0.0000
vn -0.9999 0.0143 0.0000
vn 0.0140 0.9811 -0.1930
vn -0.1521 0.9884 0.0000
vn 0.0140 0.9811 0.1930
vn -0.3581 -0.9337 0.0000
vn 0.9999 -0.0143 0.0000
vn 0.2291 0.9734 0.0000
vn -0.0131 -0.9191 0.3939
vn 0.3313 -0.9435 0.0000
vn -0.0131 -0.9191 -0.3939
vn 0.0138 0.9684 -0.2490
vn -0.2012 0.9795 0.0000
vn 0.0138 0.9684 0.2490
vn -0.6964 0.7176 0.0000
vn -0.0132 -0.9999 0.0000
vn 0.0093 0.6512 0.7588
vn 0.7166 0.6974 0.0000
vn 0.0093 0.6512 -0.7588
vn 0.0132 0.9999 0.0000
vn 0.0168 0.9999 0.0000
vn -0.0168 -0.9999 0.0000
vn 0.0143 0.9999 0.0000
vn -0.0199 -0.9969 0.0763
vn 0.6054 -0.6705 0.4288
vn 0.8204 -0.5269 -0.2221
vn 0.0540 -0.9984 0.0187
vn 0.0199 -0.9969 -0.0763
vn -0.6080 -0.6674 -0.4302
vn 0.0387 -0.7155 0.6975
vn 0.0807 -0.9962 0.0319
vn -0.8096 -0.5363 0.2386
vn -0.9079 0.0000 0.4193
vn 0.7935 -0.4795 0.3746
vn 0.0000 -0.7241 -0.6897
vn -0.0816 -0.9966 -0.0110
vn -0.8224 -0.5218 -0.2269
vn 0.9657 0.0000 -0.2597
vn 0.0084 -1.0000 -0.0004
vn 0.7166 0.6975 0.0000
usemtl マテリアル.001
s off
f 1/1/1 24/2/1 10/3/1
f 5/4/2 17/5/2 15/6/2
f 6/7/3 26/8/3 27/9/3
f 7/10/4 35/11/4 33/12/4
f 4/13/5 6/14/5 8/15/5
f 11/16/6 10/17/6 9/18/6
f 4/19/7 21/20/7 2/21/7
f 11/22/8 17/23/8 12/24/8
f 12/25/9 29/26/9 10/27/9
f 13/28/10 15/29/10 14/30/10
f 15/31/11 18/32/11 14/33/11
f 6/34/12 13/35/12 8/36/12
f 8/37/13 14/38/13 7/39/13
f 6/40/14 15/41/14 16/42/14
f 7/43/15 18/44/15 11/45/15
f 21/46/16 19/47/16 20/48/16
f 19/49/17 24/50/17 20/51/17
f 22/52/16 40/53/16 19/47/16
f 2/54/14 20/55/14 1/56/14
f 10/57/18 23/58/18 9/59/18
f 3/60/19 23/61/19 19/62/19
f 28/63/20 26/64/20 25/65/20
f 25/66/21 30/67/21 28/68/21
f 6/69/22 28/70/22 5/71/22
f 1/72/23 29/73/23 25/74/23
f 2/75/24 25/76/24 26/77/24
f 5/78/25 30/79/25 12/80/25
f 31/81/13 33/82/13 32/83/13
f 32/84/26 35/85/26 36/86/26
f 4/87/27 32/88/27 3/89/27
f 3/90/28 36/91/28 9/92/28
f 8/93/29 33/94/29 34/95/29
f 11/96/30 36/97/30 35/98/30
f 8/99/31 31/100/31 4/101/31
f 37/102/13 40/103/13 38/104/13
f 37/105/32 41/106/32 4/107/32
f 19/108/33 39/109/33 3/110/33
f 3/111/10 37/105/10 4/107/10
f 42/112/34 48/113/34 44/114/34
f 22/52/35 44/115/35 38/116/35
f 38/104/13 43/117/13 37/102/13
f 22/118/14 41/119/14 42/120/14
f 46/121/35 52/122/35 48/123/35
f 42/120/14 45/124/14 46/125/14
f 43/126/36 45/127/36 41/128/36
f 44/129/13 47/130/13 43/117/13
f 51/131/37 53/132/37 49/133/37
f 46/125/14 49/134/14 50/135/14
f 47/136/32 49/137/32 45/138/32
f 48/139/13 51/140/13 47/130/13
f 54/141/38 60/142/38 56/143/38
f 52/144/39 55/145/39 51/146/39
f 50/147/40 56/148/40 52/149/40
f 50/150/41 53/151/41 54/152/41
f 58/153/42 64/154/42 60/155/42
f 54/156/14 57/157/14 58/158/14
f 55/159/43 57/160/43 53/161/43
f 56/162/13 59/163/13 55/164/13
f 63/165/44 65/166/44 61/167/44
f 58/168/45 61/169/45 62/170/45
f 59/171/46 61/172/46 57/173/46
f 60/174/47 63/175/47 59/176/47
f 66/177/38 72/178/38 68/179/38
f 64/180/48 67/181/48 63/182/48
f 62/183/49 68/184/49 64/185/49
f 62/186/50 65/187/50 66/188/50
f 70/189/51 76/190/51 72/191/51
f 66/192/14 69/193/14 70/194/14
f 67/195/43 69/196/43 65/197/43
f 68/198/13 71/199/13 67/200/13
f 75/201/52 81/202/52 73/203/52
f 70/204/53 73/205/53 74/206/53
f 71/207/54 73/208/54 69/209/54
f 72/210/55 75/211/55 71/212/55
f 78/213/38 92/214/38 80/215/38
f 76/216/13 79/217/13 75/218/13
f 80/219/13 86/220/13 88/221/13
f 74/222/14 77/223/14 78/224/14
f 82/225/43 83/226/43 81/227/43
f 75/218/13 84/228/13 82/229/13
f 73/230/14 83/231/14 77/223/14
f 77/232/56 84/233/56 79/234/56
f 85/235/38 88/236/38 86/237/38
f 80/238/57 87/239/57 78/240/57
f 78/224/14 85/241/14 74/222/14
f 74/242/58 86/243/58 76/244/58
f 89/245/59 92/246/59 90/247/59
f 78/224/14 89/248/14 90/249/14
f 79/250/43 89/251/43 77/252/43
f 80/219/13 91/253/13 79/217/13
f 1/254/60 20/255/60 24/256/60
f 5/257/61 12/258/61 17/259/61
f 6/7/3 2/260/3 26/8/3
f 7/261/62 11/262/62 35/263/62
f 4/13/5 2/264/5 6/14/5
f 11/16/6 12/265/6 10/17/6
f 4/19/7 22/266/7 21/20/7
f 11/22/8 18/267/8 17/23/8
f 12/268/63 30/269/63 29/270/63
f 13/28/10 16/271/10 15/29/10
f 15/31/11 17/272/11 18/32/11
f 6/34/12 16/273/12 13/35/12
f 8/37/13 13/274/13 14/38/13
f 6/40/14 5/275/14 15/41/14
f 7/276/64 14/277/64 18/278/64
f 21/46/16 22/52/16 19/47/16
f 19/49/17 23/279/17 24/50/17
f 22/52/16 38/116/16 40/53/16
f 2/54/14 21/280/14 20/55/14
f 10/57/18 24/281/18 23/58/18
f 3/282/65 9/283/65 23/284/65
f 28/63/14 27/285/14 26/64/14
f 25/286/66 29/287/66 30/288/66
f 6/289/67 27/290/67 28/291/67
f 1/292/68 10/293/68 29/294/68
f 2/295/69 1/296/69 25/297/69
f 5/298/70 28/299/70 30/300/70
f 31/81/13 34/301/13 33/82/13
f 32/302/71 33/303/71 35/304/71
f 4/305/72 31/306/72 32/307/72
f 3/308/73 32/309/73 36/310/73
f 8/311/74 7/312/74 33/313/74
f 11/314/75 9/315/75 36/316/75
f 8/99/31 34/317/31 31/100/31
f 37/102/13 39/318/13 40/103/13
f 37/105/32 43/319/32 41/106/32
f 19/108/33 40/320/33 39/109/33
f 3/111/10 39/321/10 37/105/10
f 42/112/34 46/322/34 48/113/34
f 22/52/35 42/323/35 44/115/35
f 38/104/13 44/129/13 43/117/13
f 22/118/14 4/324/14 41/119/14
f 46/121/35 50/325/35 52/122/35
f 42/120/14 41/119/14 45/124/14
f 43/126/36 47/326/36 45/127/36
f 44/129/13 48/139/13 47/130/13
f 51/131/37 55/327/37 53/132/37
f 46/125/14 45/124/14 49/134/14
f 47/136/32 51/328/32 49/137/32
f 48/139/13 52/329/13 51/140/13
f 54/141/38 58/330/38 60/142/38
f 52/144/39 56/331/39 55/145/39
f 50/147/40 54/332/40 56/148/40
f 50/150/41 49/333/41 53/151/41
f 58/153/42 62/334/42 64/154/42
f 54/156/14 53/335/14 57/157/14
f 55/159/43 59/336/43 57/160/43
f 56/162/13 60/337/13 59/163/13
f 63/165/44 67/338/44 65/166/44
f 58/168/45 57/339/45 61/169/45
f 59/171/46 63/340/46 61/172/46
f 60/174/47 64/341/47 63/175/47
f 66/177/38 70/342/38 72/178/38
f 64/180/48 68/343/48 67/181/48
f 62/183/49 66/344/49 68/184/49
f 62/186/50 61/345/50 65/187/50
f 70/189/51 74/346/51 76/190/51
f 66/192/14 65/347/14 69/193/14
f 67/195/43 71/348/43 69/196/43
f 68/198/13 72/349/13 71/199/13
f 75/201/52 82/350/52 81/202/52
f 70/204/53 69/351/53 73/205/53
f 71/207/76 75/352/76 73/208/76
f 72/210/55 76/353/55 75/211/55
f 78/213/38 90/354/38 92/214/38
f 76/216/13 80/219/13 79/217/13
f 80/219/13 76/216/13 86/220/13
f 74/222/14 73/230/14 77/223/14
f 82/225/43 84/355/43 83/226/43
f 75/218/13 79/217/13 84/228/13
f 73/230/14 81/356/14 83/231/14
f 77/232/56 83/357/56 84/233/56
f 85/235/38 87/358/38 88/236/38
f 80/238/57 88/359/57 87/239/57
f 78/224/14 87/360/14 85/241/14
f 74/242/58 85/361/58 86/243/58
f 89/245/59 91/362/59 92/246/59
f 78/224/14 77/223/14 89/248/14
f 79/250/43 91/363/43 89/251/43
f 80/219/13 92/364/13 91/253/13
