# Blender v3.0.0 OBJ File: ''
# www.blender.org
mtllib BossHand.mtl
o Cube
v 2.000000 3.000000 -2.000000
v 2.000000 -3.000000 -2.000000
v 2.000000 3.000000 2.000000
v 2.000000 -3.000000 2.000000
v -2.000000 3.000000 -2.000000
v -2.000000 -3.000000 -2.000000
v -2.000000 3.000000 2.000000
v -2.000000 -3.000000 2.000000
v -1.015763 -4.633080 -1.015763
v -1.015763 -4.633080 1.015763
v 1.015763 -4.633080 -1.015763
v 1.015763 -4.633080 1.015763
v -0.526434 -4.885073 4.129534
v 0.526434 -4.885073 4.129534
v -0.267366 -5.314928 3.870466
v 0.267366 -5.314928 3.870466
v 0.524913 -4.885694 -4.129159
v -0.524913 -4.885694 -4.129159
v 0.266594 -5.314306 -3.870840
v -0.266594 -5.314306 -3.870840
v -4.103643 -4.928031 -0.421213
v -4.103643 -4.928031 0.421213
v -3.896357 -5.271968 -0.213926
v -3.896357 -5.271968 0.213926
v 4.121251 -4.898817 0.492771
v 4.121251 -4.898817 -0.492771
v 3.878749 -5.301184 0.250270
v 3.878749 -5.301184 -0.250270
v 0.738842 4.312996 0.738842
v -0.738842 4.312996 0.738842
v 0.738842 4.312996 -0.738842
v -0.738842 4.312996 -0.738842
vt 0.000000 0.686265
vt 0.182565 0.602251
vt 0.266460 0.686265
vt 0.586111 0.533596
vt 0.395284 0.799379
vt 0.395284 0.532921
vt 0.661744 0.266460
vt 0.395284 0.000000
vt 0.661744 0.000000
vt 0.214495 0.011577
vt 0.014663 0.024107
vt 0.020408 0.000000
vt 0.661744 0.532921
vt 0.395284 0.266460
vt 0.661744 0.266460
vt 0.586111 0.800055
vt 0.776938 0.532921
vt 0.776938 0.799379
vt 0.279037 0.225454
vt 0.117592 0.189866
vt 0.187217 0.126039
vt 0.395284 0.207320
vt 0.366642 0.404079
vt 0.885533 0.153229
vt 0.967457 0.014004
vt 0.967457 0.206586
vt 0.209412 0.289280
vt 0.037703 0.330948
vt 0.242979 0.756402
vt 0.217263 0.703519
vt 0.242979 0.686265
vt 0.803599 0.168129
vt 0.661744 0.266460
vt 0.135329 0.739610
vt 0.217263 0.878827
vt 0.195696 0.892868
vt 0.803600 0.153259
vt 0.885533 0.014041
vt 0.885533 0.206603
vt 0.242904 0.826335
vt 0.217263 0.773613
vt 0.242904 0.756402
vt 0.803582 0.532920
vt 0.661744 0.364554
vt 0.803582 0.266460
vt 0.918076 0.586278
vt 1.000000 0.725503
vt 0.978498 0.739507
vt 0.000000 0.840673
vt 0.085006 0.686265
vt 0.135329 0.840673
vt 0.258253 0.808035
vt 0.242979 0.765726
vt 0.258253 0.751917
vt 0.266460 0.611288
vt 0.324973 0.419805
vt 0.384128 0.611288
vt 0.943888 0.532921
vt 0.803582 0.371635
vt 0.943888 0.266460
vt 0.260848 0.751917
vt 0.242979 0.702420
vt 0.260848 0.686265
vt 0.349488 0.419805
vt 0.918075 0.799381
vt 0.776938 0.633321
vt 0.918075 0.532921
vt 0.384113 0.801281
vt 0.325488 0.611288
vt 0.354476 0.611288
vt 0.084130 0.602251
vt 0.182565 0.503815
vt 0.266460 0.419805
vt 0.084130 0.503815
vt 0.000000 0.419805
vt 0.586111 0.800055
vt 0.395284 0.266460
vt 0.395284 0.532921
vt 0.586111 0.533596
vt 0.395284 0.399611
vt 0.945956 0.000000
vt 0.061871 0.357115
vt 0.217263 0.739141
vt 0.803599 0.097993
vt 0.217263 0.686265
vt 0.863967 0.000000
vt 0.217263 0.809131
vt 0.661744 0.434489
vt 1.000000 0.532921
vt 0.049488 0.686265
vt 0.242979 0.794227
vt 0.000000 0.037549
vt 0.300191 0.419805
vt 0.803582 0.427753
vt 0.242979 0.735763
vt 0.776938 0.698973
vt 0.266460 0.801281
vn 0.0000 0.6927 -0.7212
vn 0.0000 0.0000 1.0000
vn -1.0000 0.0000 0.0000
vn -0.1050 -0.5590 -0.8225
vn 1.0000 0.0000 0.0000
vn 0.0000 0.0000 -1.0000
vn 0.0000 -1.0000 0.0000
vn 0.0919 -0.5541 -0.8274
vn -0.8295 -0.5518 -0.0860
vn 0.0000 -0.9726 -0.2323
vn 0.0000 -0.5162 0.8565
vn 0.0000 0.7488 0.6628
vn -0.8296 -0.5517 0.0857
vn 0.8296 -0.5517 0.0857
vn 0.0000 -0.5162 -0.8565
vn 0.0000 0.7486 -0.6630
vn 0.8295 -0.5518 -0.0860
vn 0.0000 -0.9727 0.2321
vn -0.8565 -0.5162 0.0000
vn 0.2165 -0.9763 0.0000
vn -0.1050 -0.5590 0.8225
vn -0.6757 0.7372 0.0000
vn 0.8565 -0.5162 0.0000
vn -0.2273 -0.9738 0.0000
vn 0.6670 0.7451 0.0000
vn 0.0919 -0.5541 0.8274
vn 0.0000 1.0000 0.0000
vn 0.0000 0.6927 0.7212
vn -0.7212 0.6927 0.0000
vn 0.7212 0.6927 0.0000
usemtl Material
s off
f 5/1/1 31/2/1 1/3/1
f 3/4/2 8/5/2 4/6/2
f 7/7/3 6/8/3 8/9/3
f 6/10/4 23/11/4 21/12/4
f 1/13/5 4/14/5 2/15/5
f 5/16/6 2/17/6 6/18/6
f 11/19/7 10/20/7 9/21/7
f 2/22/8 28/23/8 11/19/8
f 6/24/9 20/25/9 9/26/9
f 12/27/10 15/28/10 10/20/10
f 13/29/11 16/30/11 14/31/11
f 8/9/12 14/32/12 4/33/12
f 8/34/13 15/35/13 13/36/13
f 4/37/14 16/38/14 12/39/14
f 17/40/15 20/41/15 18/42/15
f 2/43/16 18/44/16 6/45/16
f 2/46/17 19/47/17 17/48/17
f 9/49/18 19/50/18 11/51/18
f 21/52/19 24/53/19 22/54/19
f 10/20/20 23/11/20 9/21/20
f 8/55/21 24/56/21 10/57/21
f 6/58/22 22/59/22 8/60/22
f 25/61/23 28/62/23 26/63/23
f 11/19/24 27/64/24 12/27/24
f 4/65/25 26/66/25 2/67/25
f 4/68/26 27/69/26 25/70/26
f 32/71/27 29/72/27 31/2/27
f 3/73/28 30/74/28 7/75/28
f 7/75/29 32/71/29 5/1/29
f 1/3/30 29/72/30 3/73/30
f 5/1/1 32/71/1 31/2/1
f 3/4/2 7/76/2 8/5/2
f 7/7/3 5/77/3 6/8/3
f 6/10/4 9/21/4 23/11/4
f 1/13/5 3/78/5 4/14/5
f 5/16/6 1/79/6 2/17/6
f 11/19/7 12/27/7 10/20/7
f 2/22/8 26/80/8 28/23/8
f 6/24/9 18/81/9 20/25/9
f 12/27/10 16/82/10 15/28/10
f 13/29/11 15/83/11 16/30/11
f 8/9/12 13/84/12 14/32/12
f 8/34/13 10/85/13 15/35/13
f 4/37/14 14/86/14 16/38/14
f 17/40/15 19/87/15 20/41/15
f 2/43/16 17/88/16 18/44/16
f 2/46/17 11/89/17 19/47/17
f 9/49/18 20/90/18 19/50/18
f 21/52/19 23/91/19 24/53/19
f 10/20/20 24/92/20 23/11/20
f 8/55/21 22/93/21 24/56/21
f 6/58/22 21/94/22 22/59/22
f 25/61/23 27/95/23 28/62/23
f 11/19/24 28/23/24 27/64/24
f 4/65/25 25/96/25 26/66/25
f 4/68/26 12/97/26 27/69/26
f 32/71/27 30/74/27 29/72/27
f 3/73/28 29/72/28 30/74/28
f 7/75/29 30/74/29 32/71/29
f 1/3/30 31/2/30 29/72/30
