# Blender v3.0.0 OBJ File: 'Tower.blend'
# www.blender.org
mtllib Tower.mtl
o Tower_立方体
v -15.000000 -5.000000 15.000000
v -5.000000 5.000000 5.000000
v -15.000000 -5.000000 -15.000000
v -5.000000 5.000000 -5.000000
v 15.000000 -5.000000 15.000000
v 5.000000 5.000000 5.000000
v 15.000000 -5.000000 -15.000000
v 5.000000 5.000000 -5.000000
v -15.000000 -13.646175 -15.000000
v -15.000000 -13.646175 15.000000
v 15.000000 -13.646175 -15.000000
v 15.000000 -13.646175 15.000000
v -5.000000 16.640947 5.000000
v -5.000000 16.640947 -5.000000
v 5.000000 16.640947 -5.000000
v 5.000000 16.640947 5.000000
v -5.000000 54.395988 5.000000
v -5.000000 54.395988 -5.000000
v 5.000000 54.395988 -5.000000
v 5.000000 54.395988 5.000000
v -10.000000 65.775406 10.000000
v -10.000000 65.775406 -10.000000
v 10.000000 65.775406 -10.000000
v 10.000000 65.775406 10.000000
v -10.000000 76.150597 10.000000
v -10.000000 76.150597 -10.000000
v 10.000000 76.150597 -10.000000
v 10.000000 76.150597 10.000000
v -1.969793 87.513542 1.969793
v -1.969793 87.513542 -1.969793
v 1.969793 87.513542 -1.969793
v 1.969793 87.513542 1.969793
v -1.969793 99.748085 1.969793
v -1.969793 99.748085 -1.969793
v 1.969793 99.748085 -1.969793
v 1.969793 99.748085 1.969793
vt 0.873324 0.436662
vt 0.960657 0.261997
vt 0.960657 0.523994
vt 0.873324 0.349330
vt 0.698659 0.261997
vt 0.785992 0.349330
vt 0.698659 0.523994
vt 0.785992 0.436662
vt 0.773995 0.523995
vt 0.849330 0.785992
vt 0.773995 0.785992
vt 0.305664 0.000000
vt 0.218331 0.101429
vt 0.218331 0.000000
vt 0.960657 0.000000
vt 0.698659 0.261997
vt 0.698659 0.000000
vt 0.698659 0.523995
vt 0.773995 0.785992
vt 0.698659 0.785992
vt 0.849330 0.523995
vt 0.924665 0.785992
vt 0.849330 0.785992
vt 0.924665 0.523995
vt 1.000000 0.785992
vt 0.924665 0.785992
vt 0.480328 0.101429
vt 0.392996 0.430393
vt 0.392996 0.101429
vt 0.130999 0.000000
vt 0.043666 0.101429
vt 0.043666 0.000000
vt 0.654993 0.000000
vt 0.567661 0.101429
vt 0.567661 0.000000
vt 0.480328 0.000000
vt 0.392996 0.000000
vt 0.305664 0.430393
vt 0.174665 0.532506
vt 0.218331 0.430393
vt 0.305664 0.101429
vt 0.130999 0.101429
vt 0.043666 0.430393
vt 0.654993 0.101429
vt 0.567661 0.430393
vt 0.174665 0.532506
vt 0.000000 0.622906
vt 0.000000 0.532506
vt 0.130999 0.430393
vt 0.654993 0.430393
vt 0.523994 0.532506
vt 0.480328 0.430393
vt 0.349330 0.532506
vt 0.523995 0.622906
vt 0.419459 0.717155
vt 0.349330 0.622906
vt 0.698659 0.532506
vt 0.349330 0.532506
vt 0.174665 0.622906
vt 0.104535 0.717155
vt 0.070130 0.823756
vt 0.070130 0.717155
vt 0.349330 0.622906
vt 0.244795 0.717155
vt 0.174665 0.622906
vt 0.698659 0.622906
vt 0.594124 0.717155
vt 0.733065 0.785992
vt 0.698659 0.820397
vt 0.698659 0.785992
vt 0.628530 0.717155
vt 0.594124 0.823756
vt 0.453865 0.717155
vt 0.419459 0.823756
vt 0.279200 0.717155
vt 0.244795 0.823756
vt 0.849330 0.523995
vt 0.960657 0.261997
vt 0.773995 0.523995
vt 0.924665 0.523995
vt 1.000000 0.523995
vt 0.104535 0.823756
vt 0.733065 0.820397
vt 0.628530 0.823756
vt 0.453865 0.823756
vt 0.279200 0.823756
vn -0.7071 0.7071 0.0000
vn 0.0000 0.7071 -0.7071
vn 0.7071 0.7071 0.0000
vn 0.0000 0.7071 0.7071
vn 0.0000 0.0000 -1.0000
vn -1.0000 0.0000 0.0000
vn 0.0000 -1.0000 0.0000
vn 1.0000 0.0000 0.0000
vn 0.0000 0.0000 1.0000
vn -0.9155 -0.4023 0.0000
vn 0.0000 -0.4023 0.9155
vn 0.0000 -0.4023 -0.9155
vn 0.9155 -0.4023 0.0000
vn 0.8167 0.5771 0.0000
vn -0.8167 0.5771 0.0000
vn 0.0000 0.5771 0.8167
vn 0.0000 0.5771 -0.8167
vn 0.0000 1.0000 0.0000
usemtl マテリアル
s off
f 2/1/1 3/2/1 1/3/1
f 4/4/2 7/5/2 3/2/2
f 8/6/3 5/7/3 7/5/3
f 6/8/4 1/3/4 5/7/4
f 7/9/5 9/10/5 3/11/5
f 2/12/6 14/13/6 4/14/6
f 11/15/7 10/16/7 9/17/7
f 3/18/6 10/19/6 1/20/6
f 5/21/8 11/22/8 7/23/8
f 1/24/9 12/25/9 5/26/9
f 15/27/8 20/28/8 16/29/8
f 6/30/9 13/31/9 2/32/9
f 4/33/5 15/34/5 8/35/5
f 8/36/8 16/29/8 6/37/8
f 17/38/10 22/39/10 18/40/10
f 13/41/6 18/40/6 14/13/6
f 16/42/9 17/43/9 13/31/9
f 14/44/5 19/45/5 15/34/5
f 24/46/9 25/47/9 21/48/9
f 20/49/11 21/48/11 17/43/11
f 18/50/12 23/51/12 19/45/12
f 19/52/13 24/53/13 20/28/13
f 27/54/14 32/55/14 28/56/14
f 22/57/5 27/54/5 23/51/5
f 23/51/8 28/56/8 24/53/8
f 21/58/6 26/59/6 22/39/6
f 32/60/9 33/61/9 29/62/9
f 25/63/15 30/64/15 26/59/15
f 28/65/16 29/62/16 25/47/16
f 26/66/17 31/67/17 27/54/17
f 34/68/18 36/69/18 35/70/18
f 30/71/5 35/72/5 31/67/5
f 31/73/8 36/74/8 32/55/8
f 29/75/6 34/76/6 30/64/6
f 2/1/1 4/4/1 3/2/1
f 4/4/2 8/6/2 7/5/2
f 8/6/3 6/8/3 5/7/3
f 6/8/4 2/1/4 1/3/4
f 7/9/5 11/77/5 9/10/5
f 2/12/6 13/41/6 14/13/6
f 11/15/7 12/78/7 10/16/7
f 3/18/6 9/79/6 10/19/6
f 5/21/8 12/80/8 11/22/8
f 1/24/9 10/81/9 12/25/9
f 15/27/8 19/52/8 20/28/8
f 6/30/9 16/42/9 13/31/9
f 4/33/5 14/44/5 15/34/5
f 8/36/8 15/27/8 16/29/8
f 17/38/10 21/58/10 22/39/10
f 13/41/6 17/38/6 18/40/6
f 16/42/9 20/49/9 17/43/9
f 14/44/5 18/50/5 19/45/5
f 24/46/9 28/65/9 25/47/9
f 20/49/11 24/46/11 21/48/11
f 18/50/12 22/57/12 23/51/12
f 19/52/13 23/51/13 24/53/13
f 27/54/14 31/73/14 32/55/14
f 22/57/5 26/66/5 27/54/5
f 23/51/8 27/54/8 28/56/8
f 21/58/6 25/63/6 26/59/6
f 32/60/9 36/82/9 33/61/9
f 25/63/15 29/75/15 30/64/15
f 28/65/16 32/60/16 29/62/16
f 26/66/17 30/71/17 31/67/17
f 34/68/18 33/83/18 36/69/18
f 30/71/5 34/84/5 35/72/5
f 31/73/8 35/85/8 36/74/8
f 29/75/6 33/86/6 34/76/6
