# Blender v3.0.0 OBJ File: ''
# www.blender.org
mtllib BulletCase.mtl
o 円柱
v 0.000000 1.000000 -1.800000
v 0.000000 1.000000 1.800000
v 0.195090 0.980785 -1.800000
v 0.195090 0.980785 1.800000
v 0.382683 0.923880 -1.800000
v 0.382683 0.923879 1.800000
v 0.555570 0.831470 -1.800000
v 0.555570 0.831470 1.800000
v 0.707107 0.707107 -1.800000
v 0.707107 0.707107 1.800000
v 0.831470 0.555570 -1.800000
v 0.831470 0.555570 1.800000
v 0.923880 0.382684 -1.800000
v 0.923880 0.382683 1.800000
v 0.980785 0.195090 -1.800000
v 0.980785 0.195090 1.800000
v 1.000000 0.000000 -1.800000
v 1.000000 -0.000000 1.800000
v 0.980785 -0.195090 -1.800000
v 0.980785 -0.195090 1.800000
v 0.923880 -0.382683 -1.800000
v 0.923880 -0.382683 1.800000
v 0.831470 -0.555570 -1.800000
v 0.831470 -0.555570 1.800000
v 0.707107 -0.707107 -1.800000
v 0.707107 -0.707107 1.800000
v 0.555570 -0.831470 -1.800000
v 0.555570 -0.831470 1.800000
v 0.382683 -0.923879 -1.800000
v 0.382683 -0.923880 1.800000
v 0.195090 -0.980785 -1.800000
v 0.195090 -0.980785 1.800000
v -0.000000 -1.000000 -1.800000
v -0.000000 -1.000000 1.800000
v -0.195090 -0.980785 -1.800000
v -0.195090 -0.980785 1.800000
v -0.382683 -0.923879 -1.800000
v -0.382683 -0.923880 1.800000
v -0.555570 -0.831469 -1.800000
v -0.555570 -0.831470 1.800000
v -0.707107 -0.707107 -1.800000
v -0.707107 -0.707107 1.800000
v -0.831469 -0.555570 -1.800000
v -0.831469 -0.555570 1.800000
v -0.923880 -0.382683 -1.800000
v -0.923880 -0.382684 1.800000
v -0.980785 -0.195090 -1.800000
v -0.980785 -0.195090 1.800000
v -1.000000 0.000000 -1.800000
v -1.000000 -0.000000 1.800000
v -0.980785 0.195090 -1.800000
v -0.980785 0.195090 1.800000
v -0.923879 0.382684 -1.800000
v -0.923879 0.382684 1.800000
v -0.831470 0.555570 -1.800000
v -0.831470 0.555570 1.800000
v -0.707107 0.707107 -1.800000
v -0.707107 0.707107 1.800000
v -0.555570 0.831470 -1.800000
v -0.555570 0.831470 1.800000
v -0.382683 0.923880 -1.800000
v -0.382683 0.923880 1.800000
v -0.195090 0.980785 -1.800000
v -0.195090 0.980785 1.800000
vt 0.971792 0.813986
vt 0.938623 0.406993
vt 0.971792 0.406993
vt 0.938623 0.813986
vt 0.901767 0.406993
vt 0.901767 0.813986
vt 0.862641 0.406993
vt 0.862641 0.813986
vt 0.822749 0.406993
vt 0.822749 0.813986
vt 0.783623 0.406993
vt 0.783623 0.813986
vt 0.746767 0.406993
vt 0.746767 0.813986
vt 0.713598 0.406993
vt 0.944668 0.406993
vt 0.911499 0.000000
vt 0.944668 0.000000
vt 0.911499 0.406993
vt 0.874643 0.000000
vt 0.874643 0.406993
vt 0.835517 0.000000
vt 0.835517 0.406993
vt 0.795625 0.000000
vt 0.795625 0.406993
vt 0.756499 0.000000
vt 0.756499 0.406993
vt 0.719643 0.000000
vt 0.713598 0.813986
vt 0.680429 0.406993
vt 0.713598 0.406993
vt 0.680429 0.813986
vt 0.643573 0.406993
vt 0.643573 0.813986
vt 0.604447 0.406993
vt 0.604447 0.813986
vt 0.564555 0.406993
vt 0.564555 0.813986
vt 0.525429 0.406993
vt 0.525429 0.813986
vt 0.488574 0.406993
vt 0.488574 0.813986
vt 0.455404 0.406993
vt 0.455404 0.813986
vt 0.427196 0.406993
vt 0.427196 0.813986
vt 0.405033 0.406993
vt 0.719643 0.406993
vt 0.691435 0.000000
vt 0.719643 0.000000
vt 0.691435 0.406993
vt 0.658266 0.000000
vt 0.658266 0.406993
vt 0.621410 0.000000
vt 0.621410 0.406993
vt 0.582284 0.000000
vt 0.582284 0.406993
vt 0.542392 0.000000
vt 0.542392 0.406993
vt 0.503266 0.000000
vt 0.503266 0.406993
vt 0.466411 0.000000
vt 0.466411 0.406993
vt 0.433241 0.000000
vt 0.073420 0.045212
vt 0.359822 0.073420
vt 0.331614 0.359822
vt 0.433241 0.406993
vt 0.405033 0.000000
vt 1.000000 0.813986
vt 1.000000 0.406993
vt 0.106589 0.428082
vt 0.381985 0.511622
vt 0.298444 0.787018
vt 0.713598 0.813986
vt 0.719643 0.406993
vt 0.405033 0.813986
vt 0.045212 0.331614
vt 0.023049 0.298444
vt 0.000000 0.182571
vt 0.007783 0.261589
vt 0.000000 0.222463
vt 0.007783 0.143445
vt 0.023049 0.106589
vt 0.045212 0.073420
vt 0.106589 0.023049
vt 0.143445 0.007783
vt 0.182570 0.000000
vt 0.222463 0.000000
vt 0.261589 0.007783
vt 0.298444 0.023049
vt 0.331613 0.045212
vt 0.381985 0.106589
vt 0.397251 0.143445
vt 0.405033 0.182570
vt 0.405033 0.222463
vt 0.397251 0.261589
vt 0.381985 0.298444
vt 0.359822 0.331613
vt 0.298444 0.381985
vt 0.261589 0.397251
vt 0.222463 0.405033
vt 0.182571 0.405033
vt 0.143445 0.397251
vt 0.106589 0.381985
vt 0.073420 0.359822
vt 0.405033 0.406993
vt 0.023049 0.703478
vt 0.007783 0.666622
vt 0.000000 0.627496
vt 0.000000 0.587604
vt 0.007783 0.548478
vt 0.023049 0.511622
vt 0.045212 0.478453
vt 0.073420 0.450245
vt 0.143445 0.412816
vt 0.182570 0.405033
vt 0.222463 0.405033
vt 0.261589 0.412816
vt 0.298444 0.428082
vt 0.331613 0.450245
vt 0.359822 0.478453
vt 0.397251 0.548478
vt 0.405033 0.587604
vt 0.405033 0.627496
vt 0.397251 0.666622
vt 0.381985 0.703478
vt 0.359822 0.736647
vt 0.331614 0.764855
vt 0.261589 0.802284
vt 0.222463 0.810067
vt 0.182571 0.810067
vt 0.143445 0.802284
vt 0.106589 0.787018
vt 0.073420 0.764855
vt 0.045212 0.736647
vn 0.0980 0.9952 0.0000
vn 0.2903 0.9569 0.0000
vn 0.4714 0.8819 0.0000
vn 0.6344 0.7730 0.0000
vn 0.7730 0.6344 0.0000
vn 0.8819 0.4714 0.0000
vn 0.9569 0.2903 0.0000
vn 0.9952 0.0980 0.0000
vn 0.9952 -0.0980 -0.0000
vn 0.9569 -0.2903 -0.0000
vn 0.8819 -0.4714 -0.0000
vn 0.7730 -0.6344 -0.0000
vn 0.6344 -0.7730 0.0000
vn 0.4714 -0.8819 0.0000
vn 0.2903 -0.9569 0.0000
vn 0.0980 -0.9952 -0.0000
vn -0.0980 -0.9952 -0.0000
vn -0.2903 -0.9569 0.0000
vn -0.4714 -0.8819 -0.0000
vn -0.6344 -0.7730 -0.0000
vn -0.7730 -0.6344 0.0000
vn -0.8819 -0.4714 -0.0000
vn -0.9569 -0.2903 -0.0000
vn -0.9952 -0.0980 -0.0000
vn -0.9952 0.0980 0.0000
vn -0.9569 0.2903 0.0000
vn -0.8819 0.4714 0.0000
vn -0.7730 0.6344 0.0000
vn -0.6344 0.7730 0.0000
vn -0.4714 0.8819 0.0000
vn -0.0000 0.0000 1.0000
vn -0.2903 0.9569 0.0000
vn -0.0980 0.9952 0.0000
vn 0.0000 0.0000 -1.0000
usemtl マテリアル
s off
f 2/1/1 3/2/1 1/3/1
f 4/4/2 5/5/2 3/2/2
f 6/6/3 7/7/3 5/5/3
f 8/8/4 9/9/4 7/7/4
f 10/10/5 11/11/5 9/9/5
f 12/12/6 13/13/6 11/11/6
f 14/14/7 15/15/7 13/13/7
f 16/16/8 17/17/8 15/18/8
f 18/19/9 19/20/9 17/17/9
f 20/21/10 21/22/10 19/20/10
f 22/23/11 23/24/11 21/22/11
f 24/25/12 25/26/12 23/24/12
f 26/27/13 27/28/13 25/26/13
f 28/29/14 29/30/14 27/31/14
f 30/32/15 31/33/15 29/30/15
f 32/34/16 33/35/16 31/33/16
f 34/36/17 35/37/17 33/35/17
f 36/38/18 37/39/18 35/37/18
f 38/40/19 39/41/19 37/39/19
f 40/42/20 41/43/20 39/41/20
f 42/44/21 43/45/21 41/43/21
f 44/46/22 45/47/22 43/45/22
f 46/48/23 47/49/23 45/50/23
f 48/51/24 49/52/24 47/49/24
f 50/53/25 51/54/25 49/52/25
f 52/55/26 53/56/26 51/54/26
f 54/57/27 55/58/27 53/56/27
f 56/59/28 57/60/28 55/58/28
f 58/61/29 59/62/29 57/60/29
f 60/63/30 61/64/30 59/62/30
f 54/65/31 38/66/31 22/67/31
f 62/68/32 63/69/32 61/64/32
f 64/70/33 1/3/33 63/71/33
f 15/72/34 31/73/34 47/74/34
f 2/1/1 4/4/1 3/2/1
f 4/4/2 6/6/2 5/5/2
f 6/6/3 8/8/3 7/7/3
f 8/8/4 10/10/4 9/9/4
f 10/10/5 12/12/5 11/11/5
f 12/12/6 14/14/6 13/13/6
f 14/14/7 16/75/7 15/15/7
f 16/16/8 18/19/8 17/17/8
f 18/19/9 20/21/9 19/20/9
f 20/21/10 22/23/10 21/22/10
f 22/23/11 24/25/11 23/24/11
f 24/25/12 26/27/12 25/26/12
f 26/27/13 28/76/13 27/28/13
f 28/29/14 30/32/14 29/30/14
f 30/32/15 32/34/15 31/33/15
f 32/34/16 34/36/16 33/35/16
f 34/36/17 36/38/17 35/37/17
f 36/38/18 38/40/18 37/39/18
f 38/40/19 40/42/19 39/41/19
f 40/42/20 42/44/20 41/43/20
f 42/44/21 44/46/21 43/45/21
f 44/46/22 46/77/22 45/47/22
f 46/48/23 48/51/23 47/49/23
f 48/51/24 50/53/24 49/52/24
f 50/53/25 52/55/25 51/54/25
f 52/55/26 54/57/26 53/56/26
f 54/57/27 56/59/27 55/58/27
f 56/59/28 58/61/28 57/60/28
f 58/61/29 60/63/29 59/62/29
f 60/63/30 62/68/30 61/64/30
f 6/78/31 4/79/31 62/80/31
f 4/79/31 2/81/31 62/80/31
f 2/81/31 64/82/31 62/80/31
f 62/80/31 60/83/31 58/84/31
f 58/84/31 56/85/31 62/80/31
f 56/85/31 54/65/31 62/80/31
f 54/65/31 52/86/31 50/87/31
f 50/87/31 48/88/31 46/89/31
f 46/89/31 44/90/31 42/91/31
f 42/91/31 40/92/31 38/66/31
f 38/66/31 36/93/31 34/94/31
f 34/94/31 32/95/31 30/96/31
f 30/96/31 28/97/31 26/98/31
f 26/98/31 24/99/31 22/67/31
f 22/67/31 20/100/31 18/101/31
f 18/101/31 16/102/31 14/103/31
f 14/103/31 12/104/31 10/105/31
f 10/105/31 8/106/31 6/78/31
f 54/65/31 50/87/31 38/66/31
f 50/87/31 46/89/31 38/66/31
f 46/89/31 42/91/31 38/66/31
f 38/66/31 34/94/31 30/96/31
f 30/96/31 26/98/31 38/66/31
f 26/98/31 22/67/31 38/66/31
f 22/67/31 18/101/31 6/78/31
f 18/101/31 14/103/31 6/78/31
f 14/103/31 10/105/31 6/78/31
f 6/78/31 62/80/31 54/65/31
f 6/78/31 54/65/31 22/67/31
f 62/68/32 64/107/32 63/69/32
f 64/70/33 2/1/33 1/3/33
f 63/108/34 1/109/34 3/110/34
f 3/110/34 5/111/34 7/112/34
f 7/112/34 9/113/34 11/114/34
f 11/114/34 13/115/34 15/72/34
f 15/72/34 17/116/34 19/117/34
f 19/117/34 21/118/34 23/119/34
f 23/119/34 25/120/34 27/121/34
f 27/121/34 29/122/34 31/73/34
f 31/73/34 33/123/34 35/124/34
f 35/124/34 37/125/34 39/126/34
f 39/126/34 41/127/34 43/128/34
f 43/128/34 45/129/34 47/74/34
f 47/74/34 49/130/34 51/131/34
f 51/131/34 53/132/34 47/74/34
f 53/132/34 55/133/34 47/74/34
f 55/133/34 57/134/34 59/135/34
f 59/135/34 61/136/34 55/133/34
f 61/136/34 63/108/34 55/133/34
f 63/108/34 3/110/34 15/72/34
f 3/110/34 7/112/34 15/72/34
f 7/112/34 11/114/34 15/72/34
f 15/72/34 19/117/34 23/119/34
f 23/119/34 27/121/34 15/72/34
f 27/121/34 31/73/34 15/72/34
f 31/73/34 35/124/34 47/74/34
f 35/124/34 39/126/34 47/74/34
f 39/126/34 43/128/34 47/74/34
f 47/74/34 55/133/34 63/108/34
f 63/108/34 15/72/34 47/74/34
