# Blender v3.0.0 OBJ File: 'Gun.blend'
# www.blender.org
mtllib Gun.mtl
o Cube
v 0.082785 0.137975 -0.275949
v 0.082785 -0.137975 -0.275949
v 0.082785 0.137975 0.275949
v 0.082785 -0.137975 0.275949
v -0.082785 0.137975 -0.275949
v -0.082785 -0.137975 -0.275949
v -0.082785 0.137975 0.275949
v -0.082785 -0.137975 0.275949
v -0.082785 -0.137975 0.926116
v -0.082785 0.137975 1.230372
v 0.082785 0.137975 1.230372
v 0.082785 -0.137975 0.926116
v 0.082785 -0.137975 -0.415400
v -0.082785 -0.137975 -0.415400
v 0.082785 0.137975 -0.415400
v -0.082785 0.137975 -0.415400
v 0.082785 -0.404199 -0.275949
v -0.082785 -0.404199 -0.275949
v 0.082785 -0.404199 -0.415400
v -0.082785 -0.404199 -0.415400
v 0.082785 -0.137975 -1.000369
v -0.082785 -0.137975 -1.000369
v 0.082785 0.137975 -1.000369
v -0.082785 0.137975 -1.000369
v 0.082785 -0.137975 -1.105410
v -0.082785 -0.137975 -1.105410
v 0.082785 0.137975 -1.105410
v -0.082785 0.137975 -1.105410
v 0.047532 0.264748 0.158439
v -0.047532 0.264748 0.158439
v 0.047532 0.264748 -0.158439
v -0.047532 0.264748 -0.158439
v -0.042915 0.411443 -1.025663
v 0.042915 0.411443 -1.025663
v -0.042915 0.411443 -1.080115
v 0.042915 0.411443 -1.080115
v 0.263890 0.137975 -0.275949
v 0.263890 -0.137975 -0.275949
v 0.263890 0.137975 -0.415400
v 0.263890 -0.137975 -0.415400
v 0.082785 0.000000 -0.275949
v -0.082785 0.000000 0.275949
v 0.082785 0.000000 0.275949
v -0.082785 0.000000 -0.275949
v -0.082785 0.000000 1.078244
v 0.082785 0.000000 1.078244
v 0.082785 0.000000 -0.415400
v -0.082785 0.000000 -0.415400
v 0.082785 0.000000 -1.000369
v -0.082785 0.000000 -1.000369
v 0.082785 0.000000 -1.105410
v -0.082785 0.000000 -1.105410
v 0.263890 0.000000 -0.275949
v 0.263890 0.000000 -0.415400
v -0.082785 0.001690 1.410697
v -0.082785 0.139664 1.562826
v 0.082785 0.139664 1.562826
v 0.082785 0.001690 1.410697
v -0.037830 -0.257939 0.452479
v 0.037830 -0.257939 0.452479
v -0.037830 -0.257939 0.749586
v 0.037830 -0.257939 0.749586
v 0.082785 -0.649777 -0.275949
v -0.082785 -0.649777 -0.275949
v 0.082785 -0.649777 -0.415400
v -0.082785 -0.649777 -0.415400
v 0.082785 -0.793212 -0.073836
v -0.082785 -0.793212 -0.073836
v 0.082785 -0.793212 -0.213287
v -0.082785 -0.793212 -0.213287
vt 0.667577 0.000000
vt 0.744378 0.089942
vt 0.690394 0.127638
vt 0.388377 0.282348
vt 0.356382 0.119526
vt 0.427180 0.097898
vt 0.451817 0.295694
vt 0.361684 0.409232
vt 0.644495 0.968089
vt 0.514834 0.838429
vt 0.644495 0.838429
vt 0.626577 0.139046
vt 0.603760 0.011408
vt 0.425124 0.422578
vt 0.354939 0.441292
vt 0.259322 0.858188
vt 0.129661 0.936294
vt 0.129661 0.858188
vt 0.941055 0.000000
vt 1.000000 0.094456
vt 0.941055 0.129661
vt 0.259322 0.633960
vt 0.129661 0.633960
vt 0.659746 0.324592
vt 0.418379 0.454638
vt 0.326647 0.575778
vt 0.291499 0.427946
vt 0.175836 0.370134
vt 0.298244 0.395886
vt 0.514834 0.566941
vt 0.547596 0.696602
vt 0.514834 0.696602
vt 0.547596 0.425114
vt 0.547596 0.566941
vt 0.000000 0.938100
vt 0.129661 0.813273
vt 0.129661 0.938100
vt 0.916170 0.430108
vt 0.864723 0.548740
vt 0.883791 0.425114
vt 0.744378 0.304545
vt 0.874039 0.179671
vt 0.874039 0.304545
vt 0.169091 0.402194
vt 0.062920 0.346380
vt 0.390087 0.589125
vt 0.321567 0.599928
vt 0.685027 0.845608
vt 0.814687 0.708177
vt 0.814687 0.845608
vt 0.685027 0.696602
vt 0.685027 0.425114
vt 0.822457 0.489942
vt 0.685027 0.489942
vt 0.259322 0.762582
vt 0.388983 0.827300
vt 0.259322 0.827300
vt 0.685027 0.708177
vt 0.814687 0.683499
vt 0.847135 0.554771
vt 0.828399 0.683499
vt 0.822457 0.554771
vt 0.822457 0.425114
vt 0.847135 0.489942
vt 0.744378 0.304545
vt 0.818824 0.378991
vt 0.744378 0.378991
vt 0.874039 0.129661
vt 0.935129 0.231714
vt 0.874039 0.259322
vt 0.455999 0.763621
vt 0.513646 0.865674
vt 0.455999 0.893282
vt 0.489302 0.407867
vt 0.499851 0.633960
vt 0.512644 0.701174
vt 0.499851 0.701174
vt 0.357759 0.633960
vt 0.388983 0.762582
vt 0.685027 0.845607
vt 0.812864 0.944045
vt 0.685027 0.975268
vt 0.512201 0.633960
vt 0.385006 0.613274
vt 0.916170 0.425114
vt 0.948932 0.489942
vt 0.916170 0.489942
vt 0.514834 0.838428
vt 0.579552 0.696602
vt 0.579552 0.838428
vt 0.677032 0.696602
vt 0.644270 0.838429
vt 0.644270 0.696602
vt 0.976521 0.741617
vt 0.911828 0.883444
vt 0.911828 0.741617
vt 0.847135 0.883444
vt 0.847135 0.741617
vt 0.644270 0.696602
vt 0.644270 0.838428
vt 0.948932 0.554771
vt 0.916170 0.554771
vt 0.388983 0.892017
vt 0.259322 0.892017
vt 0.685027 0.554771
vt 0.258126 0.586582
vt 0.263207 0.562433
vt 0.589639 0.300818
vt 0.562760 0.150454
vt 0.874039 0.129661
vt 0.539943 0.022816
vt 0.324937 0.269002
vt 0.497978 0.076269
vt 0.388983 0.893281
vt 0.455999 0.763621
vt 0.455999 0.893281
vt 0.444036 0.021629
vt 0.514834 0.000000
vt 0.729852 0.348367
vt 0.674272 0.401339
vt 0.467089 0.763620
vt 0.388983 0.633960
vt 0.467089 0.633960
vt 0.906386 0.883444
vt 0.847135 0.953246
vt 0.847135 0.883444
vt 0.514834 0.201152
vt 0.278577 0.216868
vt 0.292947 0.148562
vt 0.927865 0.388983
vt 0.874039 0.294526
vt 0.927865 0.259322
vt 0.879514 0.667772
vt 0.883791 0.736623
vt 0.847135 0.662778
vt 0.000000 0.813273
vt 0.129661 0.698126
vt 0.897103 0.553734
vt 0.744378 0.179671
vt 0.874039 0.064481
vt 0.499851 0.633960
vt 0.467089 0.763621
vt 0.467089 0.633960
vt 0.744378 0.064481
vt 0.874039 0.000000
vt 0.000000 0.318099
vt 0.006745 0.286039
vt 0.000000 0.698126
vt 0.129661 0.633960
vt 0.731277 0.016658
vt 0.514834 0.968089
vt 0.259322 0.936294
vt 1.000000 0.035205
vt 0.514834 0.425114
vt 0.056175 0.378440
vt 0.685027 0.566941
vt 0.685027 0.683499
vt 0.841192 0.683499
vt 0.847135 0.425114
vt 0.818824 0.304545
vt 0.935129 0.157268
vt 0.513646 0.791228
vt 0.504628 0.335016
vt 0.512644 0.633960
vt 0.290545 0.633960
vt 0.812864 0.876831
vt 0.514834 0.621441
vt 0.948932 0.425114
vt 0.514834 0.696602
vt 0.677032 0.838429
vt 0.976521 0.883444
vt 0.874039 0.000000
vt 0.388983 0.763621
vt 0.744378 0.425114
vt 0.388983 0.763620
vt 0.906386 0.953246
vt 0.527118 0.269864
vt 0.874039 0.353778
vt 0.916170 0.741617
vt 0.499851 0.763621
vt 0.744378 0.000000
vt 0.000000 0.633960
vn 0.9634 0.2679 0.0000
vn -1.0000 0.0000 0.0000
vn 0.0000 -1.0000 0.0000
vn 1.0000 0.0000 0.0000
vn 0.0000 1.0000 -0.0051
vn 0.0000 -0.8271 0.5621
vn 0.0000 1.0000 0.0000
vn 0.0000 0.0000 1.0000
vn 0.0000 0.0000 -1.0000
vn 0.9895 0.1443 0.0000
vn 0.0000 0.6798 -0.7334
vn 0.0000 0.6798 0.7334
vn -0.9634 0.2679 0.0000
vn 0.0000 0.0921 -0.9957
vn 0.0000 0.0921 0.9957
vn -0.9895 0.1443 0.0000
vn 0.0000 -0.7407 0.6718
vn 0.0000 -1.0000 0.0051
vn 0.9364 -0.3509 0.0000
vn -0.9364 -0.3509 0.0000
vn 0.0000 -0.8271 -0.5621
vn 0.0000 -0.8155 -0.5787
vn 0.0000 0.8155 0.5787
usemtl Material
s off
f 1/1/1 29/2/1 3/3/1
f 42/4/2 9/5/2 45/6/2
f 7/7/2 44/8/2 42/4/2
f 2/9/3 8/10/3 6/11/3
f 1/1/4 43/12/4 41/13/4
f 5/14/2 48/15/2 44/8/2
f 10/16/5 57/17/5 11/18/5
f 9/19/6 62/20/6 12/21/6
f 7/22/7 11/18/7 3/23/7
f 3/3/4 46/24/4 43/12/4
f 16/25/2 50/26/2 48/15/2
f 14/27/2 18/28/2 6/29/2
f 1/30/7 16/31/7 5/32/7
f 1/30/7 39/33/7 15/34/7
f 6/35/8 17/36/8 2/37/8
f 2/38/4 19/39/4 13/40/4
f 13/41/9 20/42/9 14/43/9
f 20/44/2 64/45/2 18/28/2
f 24/46/2 52/47/2 50/26/2
f 14/48/3 21/49/3 13/50/3
f 15/34/7 24/51/7 16/31/7
f 13/52/4 49/53/4 47/54/4
f 28/55/9 51/56/9 52/57/9
f 22/58/3 25/59/3 21/49/3
f 27/60/10 34/61/10 23/62/10
f 21/63/4 51/64/4 49/53/4
f 32/65/7 29/66/7 31/67/7
f 5/68/11 31/69/11 1/70/11
f 3/71/12 30/72/12 7/73/12
f 7/7/13 32/74/13 5/14/13
f 34/75/7 35/76/7 33/77/7
f 28/55/14 36/78/14 27/79/14
f 23/80/15 33/81/15 24/82/15
f 24/46/16 35/83/16 28/84/16
f 38/85/4 54/86/4 53/87/4
f 15/88/9 54/89/9 47/90/9
f 13/91/3 38/92/3 2/93/3
f 2/94/8 53/95/8 41/96/8
f 41/96/8 37/97/8 1/98/8
f 47/90/9 40/99/9 13/100/9
f 53/87/4 39/101/4 37/102/4
f 49/53/4 27/60/4 23/62/4
f 52/57/9 25/103/9 26/104/9
f 47/54/4 23/62/4 15/105/4
f 50/26/2 26/106/2 22/107/2
f 48/15/2 22/107/2 14/27/2
f 43/12/4 12/108/4 4/109/4
f 46/110/17 9/19/17 12/21/17
f 44/8/2 14/27/2 6/29/2
f 41/13/4 4/109/4 2/111/4
f 42/4/2 6/29/2 8/112/2
f 7/7/2 45/6/2 10/113/2
f 57/114/17 55/115/17 58/116/17
f 10/113/2 55/117/2 56/118/2
f 11/119/4 58/120/4 46/24/4
f 46/121/18 55/122/18 45/123/18
f 60/124/3 61/125/3 59/126/3
f 12/108/19 60/127/19 4/109/19
f 9/5/20 59/128/20 61/129/20
f 4/130/21 59/131/21 8/132/21
f 63/133/4 69/134/4 65/135/4
f 18/136/8 63/137/8 17/36/8
f 17/138/4 65/135/4 19/39/4
f 19/139/9 66/140/9 20/42/9
f 70/141/3 67/142/3 68/143/3
f 65/144/22 70/145/22 66/140/22
f 64/45/2 70/146/2 68/147/2
f 64/148/23 67/149/23 63/137/23
f 1/1/1 31/150/1 29/2/1
f 42/4/2 8/112/2 9/5/2
f 7/7/2 5/14/2 44/8/2
f 2/9/3 4/151/3 8/10/3
f 1/1/4 3/3/4 43/12/4
f 5/14/2 16/25/2 48/15/2
f 10/16/5 56/152/5 57/17/5
f 9/19/6 61/153/6 62/20/6
f 7/22/7 10/16/7 11/18/7
f 3/3/4 11/119/4 46/24/4
f 16/25/2 24/46/2 50/26/2
f 14/27/2 20/44/2 18/28/2
f 1/30/7 15/34/7 16/31/7
f 1/30/7 37/154/7 39/33/7
f 6/35/8 18/136/8 17/36/8
f 2/38/4 17/138/4 19/39/4
f 13/41/9 19/139/9 20/42/9
f 20/44/2 66/155/2 64/45/2
f 24/46/2 28/84/2 52/47/2
f 14/48/3 22/58/3 21/49/3
f 15/34/7 23/156/7 24/51/7
f 13/52/4 21/63/4 49/53/4
f 28/55/9 27/79/9 51/56/9
f 22/58/3 26/157/3 25/59/3
f 27/60/10 36/158/10 34/61/10
f 21/63/4 25/159/4 51/64/4
f 32/65/7 30/160/7 29/66/7
f 5/68/11 32/161/11 31/69/11
f 3/71/12 29/162/12 30/72/12
f 7/7/13 30/163/13 32/74/13
f 34/75/7 36/164/7 35/76/7
f 28/55/14 35/165/14 36/78/14
f 23/80/15 34/166/15 33/81/15
f 24/46/16 33/167/16 35/83/16
f 38/85/4 40/168/4 54/86/4
f 15/88/9 39/169/9 54/89/9
f 13/91/3 40/170/3 38/92/3
f 2/94/8 38/171/8 53/95/8
f 41/96/8 53/95/8 37/97/8
f 47/90/9 54/89/9 40/99/9
f 53/87/4 54/86/4 39/101/4
f 49/53/4 51/64/4 27/60/4
f 52/57/9 51/56/9 25/103/9
f 47/54/4 49/53/4 23/62/4
f 50/26/2 52/47/2 26/106/2
f 48/15/2 50/26/2 22/107/2
f 43/12/4 46/24/4 12/108/4
f 46/110/17 45/172/17 9/19/17
f 44/8/2 48/15/2 14/27/2
f 41/13/4 43/12/4 4/109/4
f 42/4/2 44/8/2 6/29/2
f 7/7/2 42/4/2 45/6/2
f 57/114/17 56/173/17 55/115/17
f 10/113/2 45/6/2 55/117/2
f 11/119/4 57/174/4 58/120/4
f 46/121/18 58/175/18 55/122/18
f 60/124/3 62/176/3 61/125/3
f 12/108/19 62/177/19 60/127/19
f 9/5/20 8/112/20 59/128/20
f 4/130/21 60/178/21 59/131/21
f 63/133/4 67/179/4 69/134/4
f 18/136/8 64/148/8 63/137/8
f 17/138/4 63/133/4 65/135/4
f 19/139/9 65/144/9 66/140/9
f 70/141/3 69/180/3 67/142/3
f 65/144/22 69/181/22 70/145/22
f 64/45/2 66/155/2 70/146/2
f 64/148/23 68/182/23 67/149/23
